<svg width="613" height="440" viewBox="0 0 613 440" fill="none" xmlns="http://www.w3.org/2000/svg">
<path d="M613 400.267H0V400.586H613V400.267Z" fill="#EBEBEB"/>
<path d="M551.577 420.795H510.972V421.114H551.577V420.795Z" fill="#EBEBEB"/>
<path d="M406.077 424.266H395.423V424.585H406.077V424.266Z" fill="#EBEBEB"/>
<path d="M509.747 408.955H486.22V409.274H509.747V408.955Z" fill="#EBEBEB"/>
<path d="M117.268 411.099H64.3174V411.418H117.268V411.099Z" fill="#EBEBEB"/>
<path d="M135.952 411.099H128.191V411.418H135.952V411.099Z" fill="#EBEBEB"/>
<path d="M276.033 416.483H161.182V416.802H276.033V416.483Z" fill="#EBEBEB"/>
<path d="M232.352 7.88428C217.768 13.2508 203.79 20.2584 190.668 28.7824L308.033 285.225L232.352 7.88428Z" fill="#FFEFAD" fill-opacity="0.2"/>
<path d="M385.968 12.5542C373.483 7.08765 360.522 2.88355 347.263 0L308.031 285.289L385.968 12.5542Z" fill="#FFEFAD" fill-opacity="0.2"/>
<path d="M476.363 87.395C473.347 83.0571 470.188 78.8426 466.886 74.7515L307.984 285.264L476.363 87.395Z" fill="#FFEFAD" fill-opacity="0.2"/>
<path d="M511.979 170.795C508.401 153.34 502.802 136.401 495.305 120.349L307.984 285.288L511.979 170.795Z" fill="#FFEFAD" fill-opacity="0.2"/>
<path d="M99.663 151.072C94.1186 169.616 90.9365 188.836 90.1982 208.242L307.985 285.289L99.663 151.072Z" fill="#FFEFAD" fill-opacity="0.2"/>
<path d="M120.542 102.794C118.581 106.196 116.713 109.628 114.939 113.09L307.985 285.327L120.542 102.794Z" fill="#FFEFAD" fill-opacity="0.2"/>
<path d="M143.441 364.161C151.189 373.287 159.64 381.74 168.709 389.435L308.032 285.289L143.441 364.161Z" fill="#FFEFAD" fill-opacity="0.2"/>
<path d="M102.726 292.931C107.616 306.995 113.864 320.508 121.373 333.26L307.946 285.289L102.726 292.931Z" fill="#FFEFAD" fill-opacity="0.2"/>
<path d="M246.549 431.308C265.046 436.621 284.148 439.312 303.337 439.307C304.477 439.307 305.605 439.307 306.745 439.307L307.971 285.365C304.048 288.351 264.816 385.722 246.549 431.308Z" fill="#FFEFAD" fill-opacity="0.2"/>
<path d="M379.362 424.75C395.656 418.281 411.125 409.754 425.423 399.361L308.009 285.289L379.362 424.75Z" fill="#FFEFAD" fill-opacity="0.2"/>
<path d="M444.622 383.605C447.311 381.13 449.939 378.578 452.505 375.95L307.984 285.289L444.622 383.605Z" fill="#FFEFAD" fill-opacity="0.2"/>
<path d="M478.006 344.756C490.106 326.846 499.584 307.167 506.13 286.361L307.984 285.289L478.006 344.756Z" fill="#FFEFAD" fill-opacity="0.2"/>
<path d="M515.804 237.253C516.159 233.056 516.417 228.833 516.551 224.571L307.984 285.288L515.804 237.253Z" fill="#FFEFAD" fill-opacity="0.2"/>
<path d="M449.991 123.066C462.281 123.066 472.243 110.917 472.243 95.9294C472.243 80.9421 462.281 68.7925 449.991 68.7925C437.702 68.7925 427.739 80.9421 427.739 95.9294C427.739 110.917 437.702 123.066 449.991 123.066Z" fill="#EBEBEB"/>
<path d="M449.992 118.359C460.148 118.359 468.382 108.317 468.382 95.9301C468.382 83.5428 460.148 73.501 449.992 73.501C439.835 73.501 431.602 83.5428 431.602 95.9301C431.602 108.317 439.835 118.359 449.992 118.359Z" fill="#FFCC00"/>
<path d="M451.266 107.693V111.419H449.059V107.719C446.633 107.626 444.308 106.682 442.463 105.039L443.689 101.722C445.183 103.126 447.068 103.998 449.071 104.21V97.6397C446.08 96.7593 442.941 95.5728 442.941 91.0053C442.941 87.6627 444.927 84.741 449.071 84.2434V80.5308H451.278V84.1796C453.247 84.2915 455.144 84.9865 456.746 86.1827L455.642 89.4999C454.34 88.5639 452.845 87.9567 451.278 87.7265V94.3608C454.269 95.2539 457.53 96.4021 457.53 100.957C457.518 104.274 455.495 107.157 451.266 107.693ZM449.059 93.6591V87.8158C448.323 87.852 447.628 88.1828 447.121 88.7392C446.614 89.2955 446.333 90.0343 446.337 90.8012C446.337 92.3577 447.489 93.0722 449.059 93.6336V93.6591ZM454.061 101.25C454.061 99.63 452.835 98.8772 451.266 98.3159V104.134C453.227 103.764 454.061 102.628 454.061 101.212V101.25Z" fill="#EBEBEB"/>
<path d="M150.382 379.764C162.671 379.764 172.634 367.614 172.634 352.627C172.634 337.64 162.671 325.49 150.382 325.49C138.092 325.49 128.13 337.64 128.13 352.627C128.13 367.614 138.092 379.764 150.382 379.764Z" fill="#EBEBEB"/>
<path d="M150.38 375.056C160.537 375.056 168.77 365.014 168.77 352.627C168.77 340.24 160.537 330.198 150.38 330.198C140.224 330.198 131.99 340.24 131.99 352.627C131.99 365.014 140.224 375.056 150.38 375.056Z" fill="#FFCC00"/>
<path d="M151.657 364.378V368.052H149.45V364.416C147.018 364.308 144.693 363.346 142.854 361.686L144.08 358.368C145.567 359.795 147.453 360.689 149.463 360.92V354.35C146.471 353.457 143.271 352.283 143.271 347.715C143.271 344.36 145.257 341.438 149.463 340.953V337.241H151.669V340.89C153.639 340.997 155.537 341.693 157.137 342.893L156.034 346.197C154.731 345.265 153.236 344.662 151.669 344.436V351.058C154.661 351.951 157.91 353.099 157.91 357.667C157.898 360.958 155.887 363.855 151.657 364.378ZM149.45 350.344V344.5C148.714 344.536 148.02 344.867 147.513 345.424C147.006 345.98 146.725 346.719 146.729 347.486C146.729 349.042 147.881 349.769 149.45 350.318V350.344ZM154.477 357.909C154.477 356.302 153.251 355.549 151.682 354.988V360.805C153.619 360.435 154.477 359.325 154.477 357.909Z" fill="#EBEBEB"/>
<path d="M484.74 226.825C490.875 215.744 485.733 200.695 473.254 193.213C460.776 185.73 445.686 188.648 439.551 199.729C433.415 210.81 438.557 225.859 451.036 233.341C463.515 240.823 478.605 237.906 484.74 226.825Z" fill="#EBEBEB"/>
<path d="M480.819 224.488C485.89 215.33 481.639 202.892 471.325 196.708C461.011 190.524 448.54 192.935 443.469 202.092C438.399 211.25 442.649 223.688 452.963 229.872C463.277 236.056 475.748 233.646 480.819 224.488Z" fill="#FFCC00"/>
<path d="M472.588 218.039L475.689 219.864L474.586 221.854L471.545 220.042C470.247 222.18 468.289 223.795 465.992 224.622L463.834 221.879C465.749 221.228 467.418 219.965 468.603 218.269L463.135 214.99C460.904 217.235 458.317 219.532 454.553 217.261C451.758 215.59 450.323 212.323 452.015 208.33L448.926 206.48L450.029 204.49L453.057 206.314C454.133 204.593 455.661 203.229 457.459 202.385L459.666 205.038C458.226 205.734 456.965 206.774 455.988 208.075L461.505 211.392C463.736 209.147 466.323 206.774 470.087 209.057C472.87 210.703 474.267 213.969 472.588 218.039ZM459.751 213.012L454.847 210.091C454.504 210.771 454.43 211.564 454.641 212.301C454.852 213.037 455.331 213.659 455.975 214.033C457.361 214.824 458.525 214.148 459.751 213.012ZM468.566 212.285C467.23 211.481 466.004 212.17 464.729 213.357L469.633 216.253C470.295 214.301 469.78 212.987 468.603 212.285H468.566Z" fill="#EBEBEB"/>
<path d="M369.517 200.676C384.075 200.676 395.876 188.526 395.876 173.539C395.876 158.551 384.075 146.402 369.517 146.402C354.96 146.402 343.158 158.551 343.158 173.539C343.158 188.526 354.96 200.676 369.517 200.676Z" fill="#EBEBEB"/>
<path d="M369.515 195.968C381.554 195.968 391.313 185.926 391.313 173.538C391.313 161.151 381.554 151.109 369.515 151.109C357.476 151.109 347.717 161.151 347.717 173.538C347.717 185.926 357.476 195.968 369.515 195.968Z" fill="#FFCC00"/>
<path d="M371.025 185.302V188.976H368.414V185.327C365.609 185.253 362.889 184.306 360.604 182.61L362.039 179.293C363.889 180.754 366.1 181.639 368.414 181.844V175.21C364.871 174.33 361.058 173.143 361.058 168.588C361.058 165.233 363.412 162.311 368.414 161.814V158.101H371.025V161.75C373.314 161.847 375.543 162.535 377.511 163.753L376.199 167.07C374.61 166.117 372.849 165.513 371.025 165.297V171.931C374.569 172.824 378.381 173.972 378.381 178.527C378.431 181.883 376.04 184.766 371.025 185.302ZM368.414 171.268V165.424C366.146 165.782 365.19 166.968 365.19 168.41C365.19 169.851 366.575 170.681 368.414 171.242V171.268ZM374.348 178.923C374.348 177.302 372.95 176.55 371.025 175.988V181.806C373.355 181.359 374.348 180.237 374.348 178.833V178.923Z" fill="#EBEBEB"/>
<path d="M241.338 314.251C255.896 314.251 267.697 302.101 267.697 287.114C267.697 272.127 255.896 259.977 241.338 259.977C226.781 259.977 214.979 272.127 214.979 287.114C214.979 302.101 226.781 314.251 241.338 314.251Z" fill="#EBEBEB"/>
<path d="M241.339 309.542C253.378 309.542 263.138 299.5 263.138 287.113C263.138 274.726 253.378 264.684 241.339 264.684C229.3 264.684 219.541 274.726 219.541 287.113C219.541 299.5 229.3 309.542 241.339 309.542Z" fill="#FFCC00"/>
<path d="M242.859 298.877V302.551H240.297V298.966C237.49 298.887 234.771 297.936 232.487 296.236L233.922 292.919C235.778 294.358 237.989 295.22 240.297 295.406V288.759C236.766 287.866 232.941 286.692 232.941 282.125C232.941 278.77 235.307 275.848 240.297 275.35V271.65H242.921V275.287C245.204 275.39 247.427 276.078 249.394 277.29L248.082 280.607C246.495 279.657 244.739 279.054 242.921 278.833V285.468C246.464 286.361 250.277 287.509 250.277 292.076C250.264 295.457 247.861 298.354 242.859 298.877ZM240.236 284.842V278.999C237.98 279.356 237.024 280.543 237.024 281.985C237.024 283.426 238.397 284.256 240.297 284.817L240.236 284.842ZM246.182 292.434C246.182 290.826 244.772 290.073 242.859 289.512V295.317C245.201 294.934 246.182 293.863 246.182 292.408V292.434Z" fill="#EBEBEB"/>
<path d="M132.032 253.271C145.151 246.704 150.725 230.432 144.481 216.926C138.238 203.42 122.542 197.795 109.423 204.362C96.3047 210.93 90.7311 227.202 96.9744 240.708C103.218 254.214 118.914 259.839 132.032 253.271Z" fill="#EBEBEB"/>
<path d="M130.049 249.054C140.898 243.623 145.509 230.171 140.349 219.009C135.189 207.846 122.211 203.199 111.362 208.63C100.513 214.061 95.9019 227.513 101.062 238.676C106.222 249.839 119.2 254.485 130.049 249.054Z" fill="#FFCC00"/>
<path d="M126.99 238.733L128.523 242.051L126.169 243.224L124.648 239.945C122.088 241.148 119.238 241.522 116.471 241.017L116.385 237.381C118.658 237.839 121.008 237.617 123.165 236.743L120.431 230.836C116.876 231.627 112.965 232.278 111.052 228.157C109.667 225.146 110.574 221.446 114.853 218.754L113.308 215.411L115.662 214.225L117.182 217.516C119.282 216.574 121.573 216.189 123.851 216.394L124.06 219.979C122.233 219.837 120.398 220.085 118.666 220.706L121.375 226.689C124.93 225.886 128.89 225.184 130.791 229.305C132.237 232.316 131.281 236.003 126.99 238.733ZM118.776 227.251L116.324 221.982C114.424 223.334 114.056 224.827 114.656 226.128C115.257 227.429 116.876 227.583 118.776 227.251ZM127.284 231.41C126.61 229.956 125.041 229.905 123.079 230.275L125.531 235.505C127.505 234.128 127.873 232.686 127.284 231.41Z" fill="#EBEBEB"/>
<path d="M215.102 181.921C216.547 185.534 216.927 189.513 216.192 193.351C215.458 197.19 213.643 200.714 210.978 203.476C208.314 206.237 204.92 208.112 201.228 208.86C197.537 209.608 193.715 209.197 190.249 207.679C186.783 206.16 183.829 203.603 181.764 200.332C179.698 197.062 178.615 193.226 178.65 189.312C178.686 185.399 179.84 181.585 181.964 178.356C184.089 175.127 187.089 172.628 190.582 171.179C195.204 169.228 200.379 169.264 204.975 171.278C209.571 173.291 213.213 177.118 215.102 181.921Z" fill="#EBEBEB"/>
<path d="M212.099 183.196C213.281 186.185 213.583 189.471 212.966 192.638C212.35 195.805 210.843 198.71 208.637 200.985C206.431 203.259 203.626 204.8 200.577 205.412C197.528 206.024 194.373 205.679 191.512 204.422C188.652 203.164 186.215 201.05 184.511 198.349C182.807 195.648 181.913 192.48 181.942 189.249C181.971 186.018 182.922 182.868 184.675 180.2C186.427 177.533 188.901 175.467 191.784 174.266C193.681 173.46 195.712 173.053 197.761 173.066C199.81 173.08 201.836 173.513 203.723 174.343C205.61 175.173 207.321 176.382 208.759 177.901C210.196 179.42 211.331 181.22 212.099 183.196Z" fill="#FFCC00"/>
<path d="M201.554 196.694L202.499 199.144L200.758 199.884L199.826 197.447C197.931 198.181 195.869 198.31 193.904 197.817L194.002 195.202C195.615 195.64 197.314 195.6 198.906 195.087L197.214 190.698C194.628 191.094 191.783 191.374 190.606 188.325C189.748 186.092 190.606 183.49 193.757 181.767L192.801 179.292L194.554 178.565L195.486 180.989C197.058 180.413 198.743 180.251 200.39 180.517V183.069C199.086 182.876 197.759 182.967 196.491 183.337L198.195 187.751C200.782 187.355 203.663 187.049 204.84 190.098C205.613 192.357 204.742 194.947 201.554 196.694ZM196.16 188.057L194.677 184.14C193.267 185.021 192.936 186.067 193.304 187.036C193.671 188.006 194.811 188.197 196.16 188.057ZM202.082 191.451C201.665 190.379 200.537 190.264 199.115 190.43L200.61 194.258C202.094 193.416 202.462 192.395 202.106 191.451H202.082Z" fill="#EBEBEB"/>
<path d="M446.993 386.758C456.705 382.693 461.446 371.295 457.583 361.3C453.72 351.304 442.715 346.496 433.003 350.561C423.291 354.626 418.55 366.024 422.413 376.02C426.276 386.015 437.281 390.823 446.993 386.758Z" fill="#EBEBEB"/>
<path d="M445.814 383.555C453.841 380.193 457.759 370.77 454.564 362.507C451.369 354.245 442.271 350.272 434.244 353.633C426.216 356.995 422.298 366.418 425.493 374.681C428.688 382.943 437.786 386.916 445.814 383.555Z" fill="#FFCC00"/>
<path d="M444.046 376.051L444.99 378.501L443.249 379.241L442.305 376.804C440.413 377.532 438.357 377.661 436.395 377.174L436.494 374.558C438.107 374.997 439.805 374.957 441.398 374.443L439.706 370.055C437.119 370.45 434.274 370.731 433.098 367.681C432.239 365.449 433.098 362.846 436.248 361.124L435.292 358.649L437.033 357.921L437.977 360.345C439.525 359.774 441.185 359.612 442.807 359.873V362.425C441.5 362.253 440.172 362.366 438.909 362.757L440.613 367.171C443.2 366.776 446.081 366.469 447.258 369.506C448.104 371.688 447.258 374.303 444.046 376.051ZM438.676 367.414L437.168 363.51C435.758 364.39 435.427 365.436 435.795 366.406C436.163 367.375 437.303 367.554 438.676 367.414ZM444.597 370.807C444.181 369.736 443.053 369.621 441.63 369.787L443.126 373.614C444.585 372.772 444.953 371.751 444.597 370.807Z" fill="#EBEBEB"/>
<path d="M328.078 369.775C329.523 373.388 329.902 377.367 329.168 381.205C328.434 385.043 326.619 388.567 323.954 391.329C321.289 394.091 317.895 395.965 314.204 396.714C310.513 397.462 306.691 397.051 303.225 395.532C299.758 394.014 296.805 391.456 294.739 388.186C292.674 384.915 291.59 381.079 291.626 377.166C291.662 373.252 292.815 369.438 294.94 366.209C297.065 362.98 300.065 360.482 303.558 359.032C308.179 357.082 313.355 357.118 317.951 359.131C322.547 361.145 326.189 364.972 328.078 369.775Z" fill="#EBEBEB"/>
<path d="M325.036 371.05C326.217 374.038 326.518 377.324 325.901 380.49C325.285 383.657 323.778 386.561 321.572 388.835C319.367 391.108 316.562 392.649 313.514 393.261C310.465 393.873 307.311 393.529 304.451 392.273C301.591 391.016 299.154 388.904 297.45 386.203C295.745 383.503 294.85 380.337 294.878 377.106C294.905 373.876 295.854 370.726 297.605 368.058C299.355 365.39 301.828 363.323 304.709 362.12C306.607 361.314 308.639 360.907 310.688 360.92C312.738 360.933 314.765 361.367 316.653 362.196C318.541 363.026 320.254 364.235 321.692 365.754C323.131 367.274 324.267 369.073 325.036 371.05Z" fill="#FFCC00"/>
<path d="M314.543 384.549L315.487 386.998L313.746 387.738L312.802 385.301C310.912 386.036 308.853 386.165 306.892 385.671L306.99 383.12C308.603 383.56 310.302 383.52 311.894 383.005L310.178 378.552C307.591 378.96 304.759 379.228 303.582 376.179C302.712 373.946 303.582 371.344 306.733 369.621L305.777 367.146L307.518 366.419L308.462 368.843C310.011 368.278 311.669 368.116 313.292 368.371V370.923C311.985 370.73 310.653 370.821 309.381 371.191L311.098 375.605C313.684 375.209 316.553 374.903 317.73 377.952C318.588 380.211 317.742 382.801 314.543 384.549ZM309.173 375.911L307.726 372.007C306.304 372.887 305.973 373.934 306.353 374.903C306.733 375.873 307.787 376.051 309.173 375.911ZM315.082 379.343C314.665 378.271 313.537 378.169 312.115 378.322L313.611 382.15C315.082 381.27 315.45 380.249 315.082 379.343Z" fill="#EBEBEB"/>
<path d="M345.779 63.5292C354.762 59.7676 359.144 49.22 355.567 39.9704C351.991 30.7208 341.809 26.2719 332.827 30.0334C323.844 33.7949 319.462 44.3425 323.039 53.5921C326.615 62.8417 336.797 67.2907 345.779 63.5292Z" fill="#EBEBEB"/>
<path d="M352.757 41.1584C353.86 43.922 354.148 46.9642 353.585 49.8987C353.023 52.8331 351.634 55.5272 349.597 57.6388C347.56 59.7505 344.965 61.1843 342.143 61.7581C339.321 62.3319 336.399 62.0199 333.748 60.8616C331.097 59.7033 328.836 57.7511 327.253 55.2529C325.671 52.7547 324.837 49.8234 324.859 46.8312C324.881 43.839 325.756 40.921 327.375 38.448C328.994 35.975 331.283 34.0585 333.95 32.942C335.704 32.1957 337.581 31.8163 339.475 31.8254C341.369 31.8344 343.243 32.2318 344.99 32.9949C346.736 33.7579 348.321 34.8716 349.654 36.2723C350.987 37.6731 352.041 39.3334 352.757 41.1584Z" fill="#FFCC00"/>
<path d="M343.046 53.6483L343.916 55.9193L342.298 56.5954L341.44 54.35C339.685 55.023 337.778 55.1385 335.96 54.6817L336.058 52.2704C337.551 52.67 339.121 52.6302 340.594 52.1556L339.025 48.0984C336.573 48.4684 333.998 48.7236 332.895 45.904C332.098 43.8371 332.895 41.4258 335.812 39.831L334.93 37.5473L336.548 36.8711L337.419 39.1166C338.848 38.5885 340.382 38.4394 341.881 38.6828V41.0686C340.672 40.8875 339.441 40.97 338.264 41.311L339.858 45.4064C342.31 45.0364 344.909 44.743 345.988 47.5626C346.797 49.6294 346.001 52.028 343.046 53.6483ZM338.068 45.6488L336.683 42.0382C335.371 42.8547 335.065 43.8244 335.457 44.7175C335.849 45.6105 336.793 45.7892 338.068 45.6488ZM343.549 48.8001C343.156 47.805 342.114 47.7029 340.802 47.856L342.188 51.4411C343.536 50.6118 343.88 49.6677 343.549 48.8001Z" fill="#EBEBEB"/>
<path d="M292.736 130.85C300.013 127.35 302.717 117.32 298.777 108.449C294.836 99.5783 285.742 95.2247 278.465 98.7254C271.188 102.226 268.484 112.255 272.424 121.127C276.365 129.998 285.459 134.351 292.736 130.85Z" fill="#EBEBEB"/>
<path d="M296.483 109.53C299.744 116.866 297.512 125.159 291.493 128.055C285.473 130.951 278.007 127.341 274.709 120.017C271.411 112.694 273.679 104.389 279.699 101.492C285.718 98.5962 293.222 102.194 296.483 109.53Z" fill="#FFCC00"/>
<path d="M289.445 121.37L290.414 123.552L289.102 124.177L288.146 122.021C286.677 122.646 285.05 122.74 283.524 122.289L283.364 119.967C284.614 120.397 285.964 120.397 287.214 119.967L285.485 116.139C283.487 116.471 281.28 116.688 280.079 113.983C279.821 113.469 279.665 112.907 279.621 112.329C279.577 111.751 279.646 111.17 279.824 110.621C280.001 110.071 280.284 109.565 280.654 109.132C281.024 108.699 281.475 108.348 281.979 108.101L280.998 105.894L282.31 105.269L283.266 107.425C284.462 106.934 285.767 106.805 287.03 107.055L287.251 109.339C286.233 109.147 285.186 109.212 284.198 109.53L285.939 113.46C287.95 113.128 290.181 112.886 291.37 115.591C291.848 116.623 291.914 117.811 291.553 118.893C291.193 119.976 290.435 120.867 289.445 121.37ZM284.443 113.715L282.898 110.258C282.471 110.49 282.146 110.885 281.993 111.361C281.84 111.837 281.87 112.356 282.077 112.809C282.494 113.69 283.364 113.792 284.431 113.677L284.443 113.715ZM289.347 116.777C288.93 115.833 288.023 115.718 286.895 115.846L288.428 119.29C289.568 118.474 289.776 117.581 289.396 116.739L289.347 116.777Z" fill="#EBEBEB"/>
<path d="M196.455 68.64L200.304 70.643C211.338 76.346 215.016 91.8474 208.592 105.256C202.168 118.665 188.044 124.917 177.047 119.214L173.198 117.224C162.164 111.521 158.486 96.0193 164.922 82.6103C171.359 69.2014 185.458 62.937 196.455 68.64Z" fill="#FFCC00"/>
<path d="M204.746 103.269C211.17 89.8556 207.461 74.3572 196.462 68.6528C185.463 62.9484 171.338 69.1982 164.915 82.612C158.491 96.0259 162.2 111.524 173.199 117.229C184.198 122.933 198.322 116.683 204.746 103.269Z" fill="#EBEBEB"/>
<path d="M201.291 101.477C206.6 90.3901 203.535 77.5808 194.445 72.8664C185.355 68.1521 173.682 73.3179 168.372 84.4047C163.063 95.4914 166.128 108.301 175.218 113.015C184.308 117.729 195.981 112.564 201.291 101.477Z" fill="#FFCC00"/>
<path d="M180.933 104.043L179.364 107.335L177.378 106.314L178.947 103.048C176.811 101.834 175.14 99.8927 174.215 97.5494L176.667 95.1508C177.406 97.1298 178.739 98.8077 180.467 99.9352L183.275 94.0536C180.982 91.872 178.628 89.3203 180.578 85.2376C182.012 82.2394 185.053 80.5553 189.025 82.0608L190.619 78.7437L192.593 79.7643L191.023 83.0304C192.739 84.0386 194.14 85.5403 195.057 87.3555L192.605 89.8051C191.841 88.3612 190.762 87.1244 189.454 86.1945L186.61 92.1399C188.915 94.3216 191.33 96.8604 189.38 100.943C187.995 103.89 184.942 105.536 180.933 104.043ZM184.979 90.443L187.492 85.2121C186.822 84.9119 186.066 84.8915 185.381 85.1551C184.697 85.4187 184.136 85.9462 183.814 86.6283C183.103 88.0317 183.827 89.2182 184.979 90.443ZM186.205 99.5525C186.892 98.1235 186.205 96.8987 184.979 95.6484L182.527 100.841C184.378 101.428 185.604 100.828 186.217 99.5525H186.205Z" fill="#EBEBEB"/>
<path d="M515.164 268.678L517.837 270.068C525.463 274.023 528.037 284.779 523.587 294.092C519.136 303.406 509.316 307.744 501.69 303.788L498.981 302.398C491.343 298.443 488.768 287.687 493.231 278.374C497.694 269.06 507.563 264.723 515.164 268.678Z" fill="#FFCC00"/>
<path d="M493.268 278.374C488.805 287.687 491.38 298.443 499.018 302.398C506.656 306.353 516.452 302.015 520.914 292.701C525.377 283.388 522.79 272.633 515.165 268.678C507.539 264.723 497.755 269.06 493.268 278.374Z" fill="#EBEBEB"/>
<path d="M518.522 291.491C522.21 283.791 520.085 274.896 513.777 271.625C507.468 268.353 499.365 271.943 495.677 279.643C491.989 287.343 494.114 296.238 500.423 299.51C506.731 302.781 514.835 299.191 518.522 291.491Z" fill="#FFCC00"/>
<path d="M504.389 293.25L503.285 295.534L501.925 294.832L503.003 292.561C501.522 291.711 500.363 290.361 499.718 288.734L501.459 287.062C501.968 288.415 502.878 289.564 504.058 290.341L506.007 286.271C504.413 284.753 502.783 282.98 504.144 280.147C504.389 279.601 504.735 279.111 505.162 278.705C505.589 278.298 506.089 277.983 506.634 277.778C507.178 277.573 507.756 277.482 508.334 277.51C508.913 277.538 509.48 277.684 510.004 277.94L511.107 275.631L512.48 276.345L511.389 278.616C512.579 279.314 513.55 280.356 514.185 281.615L512.468 283.337C511.942 282.321 511.194 281.447 510.286 280.785L508.361 284.932C509.955 286.45 511.634 288.211 510.274 291.056C509.772 292.158 508.87 293.008 507.767 293.419C506.664 293.83 505.449 293.77 504.389 293.25ZM507.196 283.809L508.937 280.173C508.472 279.953 507.943 279.926 507.459 280.1C506.976 280.273 506.575 280.632 506.338 281.104C505.885 282.138 506.338 282.954 507.196 283.809ZM508.055 290.188C508.533 289.193 508.055 288.338 507.184 287.471L505.455 291.081C505.922 291.307 506.454 291.335 506.939 291.158C507.425 290.982 507.825 290.616 508.055 290.137V290.188Z" fill="#EBEBEB"/>
<path d="M362.897 261.559L366.746 263.549C377.78 269.252 381.458 284.753 375.022 298.162C368.585 311.571 354.474 317.823 343.477 312.12L339.603 310.129C328.569 304.426 324.891 288.925 331.327 275.516C337.764 262.107 351.863 255.856 362.897 261.559Z" fill="#FFCC00"/>
<path d="M331.339 275.516C324.89 288.925 328.568 304.426 339.602 310.129C350.636 315.832 364.723 309.581 371.147 296.172C377.571 282.763 373.93 267.261 362.896 261.559C351.862 255.856 337.763 262.107 331.339 275.516Z" fill="#EBEBEB"/>
<path d="M367.71 294.398C373.019 283.312 369.954 270.502 360.864 265.788C351.774 261.073 340.101 266.239 334.791 277.326C329.482 288.413 332.547 301.222 341.637 305.936C350.727 310.651 362.4 305.485 367.71 294.398Z" fill="#FFCC00"/>
<path d="M347.351 296.962L345.732 300.241L343.758 299.208L345.315 295.954C343.18 294.732 341.511 292.787 340.583 290.443L343.035 288.044C343.778 289.992 345.09 291.648 346.787 292.777L349.606 286.896C347.302 284.714 344.948 282.175 346.897 278.08C348.344 275.082 351.372 273.398 355.344 274.903L356.938 271.586L358.912 272.607L357.342 275.873C359.056 276.885 360.455 278.386 361.376 280.198L358.924 282.66C358.167 281.211 357.086 279.973 355.773 279.05L353.088 284.995C355.381 287.177 357.796 289.716 355.847 293.798C354.412 296.796 351.36 298.455 347.351 296.962ZM351.396 283.349L353.91 278.118C353.239 277.821 352.484 277.802 351.8 278.066C351.116 278.329 350.555 278.854 350.232 279.534C349.521 280.951 350.244 282.124 351.396 283.349ZM352.622 292.471C353.309 291.03 352.622 289.805 351.396 288.554L348.944 293.76C350.808 294.347 352.034 293.734 352.635 292.471H352.622Z" fill="#EBEBEB"/>
<path d="M449.942 68.7925H445.639C433.379 68.7925 423.387 80.9384 423.387 95.9294C423.387 110.92 433.354 123.066 445.639 123.066H449.942C462.202 123.066 472.182 110.92 472.182 95.9294C472.182 80.9384 462.275 68.7925 449.942 68.7925Z" fill="#FFCC00"/>
<path d="M150.381 325.49H146.078C133.818 325.49 123.826 337.636 123.826 352.627C123.826 367.618 133.794 379.764 146.078 379.764H150.381C162.641 379.764 172.621 367.605 172.621 352.627C172.621 337.649 162.666 325.49 150.381 325.49Z" fill="#FFCC00"/>
<path d="M439.57 199.77L437.425 203.597C431.295 214.684 436.432 229.726 448.9 237.216C461.368 244.705 476.473 241.783 482.603 230.696C482.774 230.403 484.589 227.124 484.748 226.869C490.878 215.794 485.741 200.752 473.273 193.263C460.805 185.774 445.7 188.696 439.57 199.77Z" fill="#FFCC00"/>
<path d="M278.461 98.6604L275.911 99.9363C268.641 103.432 265.931 113.46 269.879 122.34C273.827 131.22 282.911 135.557 290.182 132.062L292.732 130.786C300.002 127.29 302.711 117.262 298.764 108.382C294.816 99.5025 285.731 95.2029 278.461 98.6604Z" fill="#FFCC00"/>
</svg>
