<svg width="41" height="40" viewBox="0 0 41 40" fill="none" xmlns="http://www.w3.org/2000/svg">
<path d="M4.66666 14.1665V34.1665C4.66666 35.0873 5.41249 35.8332 6.33332 35.8332H31.3333V14.1665H4.66666Z" fill="#CF1928"/>
<path d="M31.3333 14.1665V35.8332H35.5C36.4208 35.8332 37.1667 35.0873 37.1667 34.1665V14.1665H31.3333Z" fill="#B31523"/>
<path d="M33 14.1665V9.1665H3.83333C3.37333 9.1665 3 9.53984 3 9.99984V13.3332C3 13.7932 3.37333 14.1665 3.83333 14.1665H33Z" fill="#EB6773"/>
<path d="M33 9.1665V14.1665H38C38.46 14.1665 38.8333 13.7932 38.8333 13.3332V9.99984C38.8333 9.53984 38.46 9.1665 38 9.1665H33Z" fill="#D9414F"/>
<path d="M20.5 9.1665H16.3333V35.8332H20.5V9.1665Z" fill="#EDBE00"/>
<path d="M21.3333 9.16688H14.6667L11.5775 6.07771C11.2517 5.75188 11.2517 5.22438 11.5775 4.89938L13.7325 2.74438C14.0583 2.41854 14.5858 2.41854 14.9108 2.74438L21.3333 9.16688Z" fill="#E3A600"/>
<path d="M18.8333 9.16688H25.5L28.5892 6.07771C28.915 5.75188 28.915 5.22438 28.5892 4.89938L26.4342 2.74438C26.1083 2.41854 25.5808 2.41854 25.2558 2.74438L18.8333 9.16688Z" fill="#EDBE00"/>
</svg>
