<svg width="24" height="24" viewBox="0 0 24 24" fill="none" xmlns="http://www.w3.org/2000/svg">
<path d="M5.25 0.03125C5.25 0.03125 1.03125 1.66797 1.03125 5.90625C1.03125 5.90625 2.65625 6.87891 10.9062 6.96875C10.9414 6.97266 10.9648 7 11 7H13C13.0352 7 13.0586 6.97266 13.0938 6.96875C21.3438 6.87891 22.9688 5.90625 22.9688 5.90625C22.9688 1.66797 18.75 0.03125 18.75 0.03125C17.9023 1.59766 16.375 3.3125 13.9688 4.90625C13.918 4.40234 13.5156 4 13 4H11C10.4844 4 10.082 4.40234 10.0312 4.90625C7.625 3.3125 6.09766 1.59766 5.25 0.03125ZM4.625 2.90625C5.74219 4.02344 7.99609 5.09766 10 5.4375V6C10 6.30078 10.1328 6.56641 10.3438 6.75C8.33203 6.42578 4.99609 5.76172 3.4375 4.59375C3.45703 3.90234 4.25 3.14453 4.625 2.90625ZM19.375 2.90625C19.75 3.14453 20.543 3.90234 20.5625 4.59375C19.0039 5.76172 15.668 6.42578 13.6562 6.75C13.8672 6.56641 14 6.30078 14 6V5.4375C16.0039 5.09766 18.2578 4.02344 19.375 2.90625ZM1 8C0.449219 8 0 8.44922 0 9V15H11V8H1ZM13 8V15H24V9C24 8.44922 23.5508 8 23 8H13ZM0 17V23C0 23.5508 0.449219 24 1 24H11V17H0ZM13 17V24H23C23.5508 24 24 23.5508 24 23V17H13Z" fill="#5B5B5B"/>
</svg>
